<?xml version="1.0" encoding="UTF-8"?>
<!DOCTYPE svg PUBLIC "-//W3C//DTD SVG 1.1//EN" "http://www.w3.org/Graphics/SVG/1.1/DTD/svg11.dtd">
<!-- Creator: CorelDRAW X7 -->
<svg xmlns="http://www.w3.org/2000/svg" xml:space="preserve" width="60px" height="52px" version="1.1" style="shape-rendering:geometricPrecision; text-rendering:geometricPrecision; image-rendering:optimizeQuality; fill-rule:evenodd; clip-rule:evenodd"
viewBox="0 0 60 52"
 xmlns:xlink="http://www.w3.org/1999/xlink">
 <defs>
  <style type="text/css">
   <![CDATA[
    .fil2 {fill:black}
    .fil1 {fill:#2FFFFE}
    .fil0 {fill:#FC060F}
   ]]>
  </style>
 </defs>
 <g id="icon">
  <metadata id="CorelCorpID_0Corel-Layer"/>
  <g id="_2267196537568">
   <polygon id="left_x0020_red" class="fil0" points="27,5 13,29 9,29 8,31 12,31 4,43 12,40 14,37 12,35 15,31 11,31 12,29 16,29 22,18 24,18 26,16 26,16 29,16 29,16 27,16 28,13 "/>
   <polygon id="left_x0020_cyan" class="fil1" points="23,2 16,15 18,16 16,18 14,18 8,29 4,29 3,31 7,31 1,41 9,38 11,35 9,32 10,31 8,31 9,29 11,29 17,18 19,18 20,16 19,16 20,14 23,14 25,11 "/>
   <polygon id="left_x0020_black" class="fil2" points="25,3 18,16 20,16 18,18 16,18 10,29 6,29 4,31 9,31 3,42 11,39 12,36 11,33 12,31 8,31 10,29 13,29 19,18 22,18 23,16 21,16 22,15 24,15 26,12 "/>
  </g>
  <g id="_2267196537248">
   <polygon id="right_x0020_red" class="fil0" points="59,43 52,31 48,31 46,29 51,29 45,18 47,18 45,16 43,16 37,4 35,12 37,16 42,16 43,18 41,18 48,29 44,29 45,31 49,31 51,34 49,36 51,40 "/>
   <polygon id="right_x0020_cyan" class="fil1" points="55,41 49,31 46,31 45,29 48,29 33,2 31,10 33,14 36,13 37,16 40,16 41,18 39,18 45,29 41,29 42,31 46,31 47,32 45,34 47,38 "/>
   <polygon id="right_x0020_black" class="fil2" points="57,42 50,31 46,31 45,29 49,29 43,18 46,18 44,16 42,15 35,3 33,12 35,15 38,14 38,15 40,15 42,18 40,18 46,29 42,29 43,31 47,31 49,33 47,36 49,39 "/>
  </g>
  <g id="_2267196535552">
   <polygon id="bottom_x0020_red" class="fil0" points="9,51 54,51 50,48 46,48 45,47 49,47 47,45 44,45 43,48 21,48 20,45 16,45 "/>
   <polygon id="bottom_x0020_cyan" class="fil1" points="6,48 50,48 49,48 44,48 43,47 49,47 44,42 40,42 39,45 17,45 16,42 12,42 7,47 3,47 2,48 6,48 "/>
   <polygon id="bottom_x0020_black" class="fil2" points="7,49 51,49 50,48 45,48 44,47 49,47 45,44 41,44 40,46 19,46 17,44 14,44 10,47 5,47 5,48 9,48 "/>
  </g>
 </g>
</svg>
